<?xml version="1.0" encoding="UTF-8" standalone="no"?>
<!DOCTYPE svg PUBLIC "-//W3C//DTD SVG 1.1//EN" "http://www.w3.org/Graphics/SVG/1.1/DTD/svg11.dtd">
<svg width="100%" height="100%" viewBox="0 0 799 181" version="1.1" xmlns="http://www.w3.org/2000/svg" xmlns:xlink="http://www.w3.org/1999/xlink" xml:space="preserve" xmlns:serif="http://www.serif.com/" style="fill-rule:evenodd;clip-rule:evenodd;stroke-linejoin:round;stroke-miterlimit:2;">
    <g transform="matrix(1,0,0,1,-101.522,-3642.17)">
        <g transform="matrix(0.942754,0,0,0.942754,-1398.31,2234.58)">
            <g transform="matrix(1.07864,0,0,1.07864,810.537,-1333.25)">
                <g transform="matrix(182.963,0,0,182.963,849.918,2752.03)">
                    <path d="M0.078,-0C0.063,-0 0.05,-0.005 0.04,-0.015C0.03,-0.025 0.025,-0.037 0.025,-0.051L0.024,-0.554C0.024,-0.599 0.041,-0.638 0.073,-0.671C0.106,-0.704 0.146,-0.72 0.192,-0.72C0.239,-0.72 0.278,-0.704 0.311,-0.671C0.344,-0.638 0.36,-0.599 0.36,-0.554L0.36,-0.409C0.36,-0.361 0.343,-0.32 0.308,-0.285C0.274,-0.251 0.232,-0.234 0.183,-0.234L0.131,-0.234L0.132,-0.051C0.131,-0.037 0.126,-0.025 0.116,-0.015C0.106,-0.005 0.094,-0 0.079,-0L0.078,-0ZM0.131,-0.335L0.183,-0.335C0.202,-0.335 0.218,-0.343 0.232,-0.357C0.246,-0.371 0.253,-0.388 0.253,-0.409L0.253,-0.554C0.253,-0.572 0.247,-0.588 0.235,-0.6C0.223,-0.612 0.209,-0.618 0.192,-0.618C0.176,-0.618 0.162,-0.612 0.15,-0.6C0.137,-0.588 0.131,-0.572 0.131,-0.554L0.131,-0.335Z" style="fill:rgb(8,15,15);fill-rule:nonzero;"/>
                </g>
                <g transform="matrix(182.963,0,0,182.963,922.46,2752.03)">
                    <path d="M0.307,-0.578C0.322,-0.578 0.335,-0.573 0.345,-0.563C0.355,-0.552 0.36,-0.541 0.36,-0.527L0.36,0.084C0.36,0.129 0.344,0.167 0.312,0.199C0.279,0.231 0.239,0.248 0.192,0.248C0.166,0.248 0.14,0.242 0.115,0.231C0.09,0.221 0.069,0.205 0.053,0.185C0.037,0.165 0.028,0.141 0.028,0.114C0.028,0.1 0.033,0.088 0.044,0.078C0.054,0.068 0.067,0.062 0.082,0.063C0.097,0.062 0.11,0.068 0.12,0.078C0.13,0.088 0.135,0.1 0.135,0.114C0.135,0.121 0.141,0.128 0.153,0.135C0.165,0.142 0.178,0.146 0.192,0.146C0.209,0.146 0.223,0.14 0.235,0.128C0.247,0.116 0.253,0.101 0.253,0.084L0.253,-0.01C0.242,-0.004 0.221,-0 0.192,-0C0.146,-0 0.106,-0.017 0.073,-0.049C0.041,-0.081 0.024,-0.119 0.024,-0.164L0.024,-0.526C0.024,-0.54 0.03,-0.552 0.04,-0.562C0.05,-0.572 0.063,-0.577 0.078,-0.577C0.093,-0.577 0.106,-0.572 0.116,-0.562C0.126,-0.552 0.131,-0.54 0.131,-0.526L0.131,-0.164C0.131,-0.146 0.137,-0.132 0.15,-0.12C0.162,-0.108 0.176,-0.103 0.192,-0.103C0.209,-0.103 0.223,-0.108 0.235,-0.12C0.247,-0.132 0.253,-0.146 0.253,-0.164L0.253,-0.527C0.253,-0.541 0.259,-0.552 0.269,-0.563C0.279,-0.573 0.292,-0.578 0.307,-0.578Z" style="fill:rgb(8,15,15);fill-rule:nonzero;"/>
                </g>
                <g transform="matrix(182.963,0,0,182.963,995.091,2752.03)">
                    <path d="M0.213,-0.102C0.229,-0.102 0.241,-0.097 0.252,-0.087C0.262,-0.076 0.267,-0.065 0.267,-0.051C0.267,-0.038 0.262,-0.026 0.252,-0.015C0.241,-0.005 0.229,-0 0.213,-0L0.192,-0C0.146,-0 0.106,-0.016 0.073,-0.048C0.041,-0.081 0.024,-0.119 0.024,-0.164L0.024,-0.668C0.024,-0.682 0.03,-0.694 0.04,-0.704C0.05,-0.714 0.063,-0.719 0.078,-0.719C0.093,-0.719 0.106,-0.714 0.116,-0.704C0.126,-0.694 0.131,-0.682 0.131,-0.668L0.131,-0.578L0.199,-0.578C0.214,-0.578 0.226,-0.573 0.237,-0.562C0.247,-0.552 0.252,-0.54 0.252,-0.526C0.252,-0.513 0.247,-0.501 0.237,-0.491C0.226,-0.481 0.214,-0.476 0.199,-0.476L0.131,-0.476L0.131,-0.164C0.131,-0.146 0.137,-0.132 0.15,-0.12C0.162,-0.108 0.176,-0.102 0.192,-0.102L0.213,-0.102Z" style="fill:rgb(8,15,15);fill-rule:nonzero;"/>
                </g>
                <g transform="matrix(182.963,0,0,182.963,1048.07,2752.03)">
                    <path d="M0.192,-0.577C0.239,-0.577 0.279,-0.56 0.312,-0.528C0.344,-0.495 0.36,-0.457 0.36,-0.412L0.36,-0.051C0.36,-0.038 0.355,-0.026 0.345,-0.015C0.335,-0.005 0.322,-0 0.307,-0C0.292,-0 0.279,-0.005 0.269,-0.015C0.259,-0.026 0.253,-0.038 0.253,-0.051L0.253,-0.412C0.253,-0.43 0.247,-0.444 0.235,-0.457C0.223,-0.469 0.209,-0.475 0.192,-0.475C0.176,-0.475 0.162,-0.469 0.15,-0.457C0.137,-0.444 0.131,-0.43 0.131,-0.412L0.131,-0.051C0.131,-0.038 0.126,-0.026 0.116,-0.015C0.106,-0.005 0.093,-0 0.078,-0C0.063,-0 0.05,-0.005 0.04,-0.015C0.03,-0.026 0.024,-0.038 0.024,-0.051L0.024,-0.668C0.024,-0.682 0.03,-0.694 0.04,-0.704C0.05,-0.714 0.063,-0.719 0.078,-0.719C0.093,-0.719 0.106,-0.714 0.116,-0.704C0.126,-0.694 0.131,-0.682 0.131,-0.668L0.131,-0.567C0.143,-0.573 0.163,-0.577 0.192,-0.577Z" style="fill:rgb(8,15,15);fill-rule:nonzero;"/>
                </g>
                <g transform="matrix(182.963,0,0,182.963,1120.7,2752.03)">
                    <path d="M0.192,-0C0.146,-0 0.106,-0.016 0.073,-0.049C0.041,-0.081 0.024,-0.12 0.024,-0.166L0.024,-0.411C0.024,-0.456 0.041,-0.495 0.073,-0.528C0.106,-0.56 0.146,-0.577 0.192,-0.577C0.239,-0.577 0.279,-0.56 0.312,-0.528C0.344,-0.495 0.36,-0.456 0.36,-0.411L0.36,-0.166C0.36,-0.12 0.344,-0.081 0.312,-0.049C0.279,-0.016 0.239,-0 0.192,-0ZM0.192,-0.475C0.176,-0.475 0.162,-0.469 0.15,-0.456C0.137,-0.444 0.131,-0.429 0.131,-0.411L0.131,-0.166C0.131,-0.148 0.137,-0.133 0.15,-0.12C0.162,-0.108 0.176,-0.102 0.192,-0.102C0.209,-0.102 0.223,-0.108 0.235,-0.12C0.247,-0.133 0.253,-0.148 0.253,-0.166L0.253,-0.411C0.253,-0.429 0.247,-0.444 0.235,-0.456C0.223,-0.469 0.209,-0.475 0.192,-0.475Z" style="fill:rgb(8,15,15);fill-rule:nonzero;"/>
                </g>
                <g transform="matrix(182.963,0,0,182.963,1193.33,2752.03)">
                    <path d="M0.307,-0C0.292,-0 0.279,-0.005 0.269,-0.015C0.259,-0.026 0.253,-0.038 0.253,-0.051L0.253,-0.413C0.253,-0.431 0.247,-0.445 0.235,-0.457C0.223,-0.469 0.209,-0.475 0.192,-0.475C0.176,-0.475 0.162,-0.469 0.15,-0.457C0.137,-0.445 0.131,-0.431 0.131,-0.413L0.131,-0.051C0.131,-0.038 0.126,-0.026 0.116,-0.015C0.106,-0.005 0.093,-0 0.078,-0C0.063,-0 0.05,-0.005 0.04,-0.015C0.03,-0.026 0.024,-0.038 0.024,-0.051L0.024,-0.413C0.024,-0.458 0.041,-0.497 0.073,-0.529C0.106,-0.561 0.146,-0.577 0.192,-0.577C0.239,-0.577 0.279,-0.561 0.312,-0.529C0.344,-0.497 0.36,-0.458 0.36,-0.413L0.36,-0.051C0.36,-0.038 0.355,-0.026 0.345,-0.015C0.335,-0.005 0.322,-0 0.307,-0Z" style="fill:rgb(8,15,15);fill-rule:nonzero;"/>
                </g>
                <g transform="matrix(182.963,0,0,182.963,1265.96,2752.03)">
                    <path d="M0.351,-0.378C0.366,-0.378 0.379,-0.373 0.389,-0.363C0.399,-0.352 0.404,-0.34 0.404,-0.327C0.404,-0.313 0.399,-0.302 0.389,-0.291C0.379,-0.281 0.366,-0.276 0.351,-0.276L0.353,-0.276L0.353,-0.051C0.353,-0.038 0.347,-0.026 0.337,-0.016C0.327,-0.006 0.314,-0 0.299,-0C0.279,-0 0.266,-0.006 0.259,-0.016C0.242,-0.005 0.218,-0 0.188,-0C0.142,-0 0.104,-0.016 0.072,-0.048C0.04,-0.079 0.024,-0.117 0.024,-0.162L0.024,-0.559C0.024,-0.603 0.04,-0.64 0.072,-0.672C0.104,-0.704 0.142,-0.72 0.188,-0.72C0.234,-0.72 0.272,-0.704 0.304,-0.672C0.336,-0.64 0.352,-0.603 0.352,-0.559L0.352,-0.556C0.352,-0.542 0.347,-0.53 0.337,-0.52C0.326,-0.51 0.314,-0.505 0.298,-0.505C0.283,-0.505 0.27,-0.51 0.26,-0.52C0.25,-0.53 0.245,-0.542 0.245,-0.556L0.245,-0.559C0.245,-0.576 0.239,-0.59 0.228,-0.601C0.217,-0.612 0.203,-0.618 0.188,-0.618C0.173,-0.618 0.16,-0.612 0.148,-0.601C0.137,-0.59 0.131,-0.576 0.131,-0.559L0.131,-0.162C0.131,-0.145 0.137,-0.131 0.148,-0.119C0.16,-0.108 0.173,-0.102 0.188,-0.102C0.203,-0.102 0.217,-0.108 0.228,-0.119C0.239,-0.131 0.245,-0.145 0.245,-0.162L0.245,-0.276L0.206,-0.276C0.19,-0.276 0.178,-0.281 0.167,-0.291C0.157,-0.302 0.152,-0.313 0.152,-0.327C0.152,-0.34 0.157,-0.352 0.167,-0.363C0.178,-0.373 0.19,-0.378 0.206,-0.378L0.351,-0.378Z" style="fill:rgb(8,15,15);fill-rule:nonzero;"/>
                </g>
                <g transform="matrix(182.963,0,0,182.963,1339.23,2752.03)">
                    <path d="M0.192,-0C0.146,-0 0.106,-0.016 0.073,-0.049C0.041,-0.081 0.024,-0.12 0.024,-0.166L0.024,-0.669C0.024,-0.683 0.03,-0.695 0.04,-0.705C0.05,-0.715 0.063,-0.72 0.078,-0.72C0.093,-0.72 0.106,-0.715 0.116,-0.705C0.126,-0.695 0.131,-0.683 0.131,-0.669L0.131,-0.166C0.131,-0.148 0.137,-0.133 0.15,-0.12C0.162,-0.108 0.176,-0.102 0.192,-0.102C0.209,-0.102 0.223,-0.108 0.235,-0.12C0.247,-0.133 0.253,-0.148 0.253,-0.166L0.253,-0.669C0.253,-0.683 0.258,-0.695 0.269,-0.705C0.279,-0.715 0.291,-0.72 0.307,-0.72C0.322,-0.72 0.335,-0.715 0.345,-0.705C0.355,-0.695 0.36,-0.683 0.36,-0.669L0.36,-0.166C0.36,-0.12 0.344,-0.081 0.311,-0.049C0.278,-0.016 0.239,-0 0.192,-0Z" style="fill:rgb(8,15,15);fill-rule:nonzero;"/>
                </g>
                <g transform="matrix(182.963,0,0,182.963,1411.86,2752.03)">
                    <path d="M0.078,-0C0.063,-0 0.05,-0.005 0.04,-0.015C0.03,-0.026 0.024,-0.037 0.024,-0.051L0.024,-0.669C0.024,-0.683 0.03,-0.695 0.04,-0.705C0.05,-0.715 0.063,-0.72 0.078,-0.72C0.093,-0.72 0.106,-0.715 0.116,-0.705C0.126,-0.695 0.131,-0.683 0.131,-0.669L0.131,-0.051C0.131,-0.037 0.126,-0.026 0.116,-0.015C0.106,-0.005 0.093,-0 0.078,-0Z" style="fill:rgb(8,15,15);fill-rule:nonzero;"/>
                </g>
                <g transform="matrix(182.963,0,0,182.963,1442.59,2752.03)">
                    <path d="M0.189,-0C0.144,-0 0.105,-0.013 0.073,-0.04C0.041,-0.067 0.024,-0.099 0.024,-0.137L0.024,-0.172C0.024,-0.186 0.03,-0.198 0.04,-0.208C0.05,-0.218 0.063,-0.223 0.078,-0.223C0.093,-0.223 0.106,-0.218 0.116,-0.208C0.126,-0.198 0.131,-0.186 0.131,-0.172L0.131,-0.137C0.131,-0.129 0.137,-0.121 0.147,-0.114C0.158,-0.106 0.172,-0.102 0.189,-0.102C0.207,-0.102 0.221,-0.106 0.232,-0.114C0.242,-0.121 0.248,-0.129 0.248,-0.137L0.248,-0.214L0.025,-0.272L0.024,-0.438C0.024,-0.476 0.041,-0.509 0.074,-0.536C0.107,-0.563 0.146,-0.577 0.192,-0.577C0.239,-0.577 0.279,-0.563 0.311,-0.536C0.344,-0.509 0.36,-0.476 0.36,-0.438L0.36,-0.39C0.36,-0.376 0.355,-0.365 0.345,-0.354C0.335,-0.344 0.322,-0.339 0.307,-0.339C0.292,-0.339 0.279,-0.344 0.269,-0.354C0.259,-0.365 0.253,-0.376 0.253,-0.39L0.253,-0.438C0.253,-0.446 0.248,-0.454 0.237,-0.462C0.226,-0.471 0.211,-0.475 0.192,-0.475C0.174,-0.475 0.159,-0.471 0.148,-0.462C0.137,-0.454 0.131,-0.446 0.131,-0.438L0.132,-0.35L0.354,-0.292L0.354,-0.137C0.354,-0.099 0.338,-0.067 0.306,-0.04C0.274,-0.013 0.235,-0 0.189,-0Z" style="fill:rgb(8,15,15);fill-rule:nonzero;"/>
                </g>
            </g>
            <g transform="matrix(0.745123,0,0,0.745123,436.34,383.473)">
                <g transform="matrix(1,0,0,1,2.27374e-13,-3.92843)">
                    <path d="M1711.97,1605.17C1711.97,1590.66 1700.18,1578.87 1685.67,1578.87L1615.55,1578.87C1601.03,1578.87 1589.25,1590.66 1589.25,1605.17L1589.25,1684.06L1685.67,1684.06C1700.18,1684.06 1711.97,1672.28 1711.97,1657.76L1711.97,1605.17ZM1641.72,1594.2C1646.93,1594.2 1651.16,1598.43 1651.16,1603.64C1651.16,1608.85 1646.93,1613.07 1641.72,1613.07C1636.51,1613.07 1632.28,1608.85 1632.28,1603.64C1632.28,1598.43 1636.51,1594.2 1641.72,1594.2ZM1664.63,1594.2C1669.84,1594.2 1674.07,1598.43 1674.07,1603.64C1674.07,1608.85 1669.84,1613.07 1664.63,1613.07C1659.42,1613.07 1655.19,1608.85 1655.19,1603.64C1655.19,1598.43 1659.42,1594.2 1664.63,1594.2ZM1687.54,1594.2C1692.75,1594.2 1696.98,1598.43 1696.98,1603.64C1696.98,1608.85 1692.75,1613.07 1687.54,1613.07C1682.34,1613.07 1678.11,1608.85 1678.11,1603.64C1678.11,1598.43 1682.34,1594.2 1687.54,1594.2Z" style="fill:rgb(255,190,11);"/>
                </g>
                <g id="path1948" transform="matrix(1.84944,0,0,1.84944,1533.67,1489.13)">
                    <path d="M54.919,0.001C50.335,0.022 45.958,0.413 42.106,1.095C30.76,3.099 28.7,7.295 28.7,15.032L28.7,25.251L55.513,25.251L55.513,28.657L28.7,28.657L25.356,28.626C17.564,28.626 8.568,33.058 8.606,42.22C8.65,52.677 8.479,47.296 8.606,57.532C8.707,65.695 15.064,71.126 22.856,71.126L25.356,71.157L25.356,58.907C25.356,50.057 33.013,42.251 42.106,42.251L68.888,42.251C76.342,42.251 82.294,36.113 82.294,28.626L82.294,15.032C82.294,7.766 76.164,2.307 68.888,1.095C64.282,0.328 59.502,-0.02 54.919,0.001ZM40.419,8.22C43.188,8.22 45.45,10.518 45.45,13.345C45.45,16.161 43.188,18.438 40.419,18.438C37.639,18.438 35.388,16.161 35.388,13.345C35.388,10.518 37.639,8.22 40.419,8.22Z" style="fill:rgb(45,117,246);fill-rule:nonzero;"/>
                </g>
            </g>
        </g>
    </g>
</svg>